<svg width="170" height="28" viewBox="0 0 170 28" fill="none" xmlns="http://www.w3.org/2000/svg">
<rect x="0.858765" width="168.283" height="28" rx="5" fill="#0E1337" fill-opacity="0.15"/>
<path d="M12.2493 19V9.2H15.4693C16.2346 9.2 16.8646 9.326 17.3593 9.578C17.8539 9.83 18.2179 10.1707 18.4513 10.6C18.6939 11.0293 18.8153 11.5147 18.8153 12.056C18.8153 12.588 18.6986 13.0687 18.4653 13.498C18.2319 13.9273 17.8679 14.2727 17.3733 14.534C16.8786 14.786 16.2439 14.912 15.4693 14.912H13.4253V19H12.2493ZM13.4253 13.918H15.4413C16.2253 13.918 16.7806 13.7547 17.1073 13.428C17.4433 13.092 17.6113 12.6347 17.6113 12.056C17.6113 11.468 17.4433 11.0107 17.1073 10.684C16.7806 10.348 16.2253 10.18 15.4413 10.18H13.4253V13.918ZM23.0405 19.168C22.3872 19.168 21.7992 19.0187 21.2765 18.72C20.7539 18.4213 20.3385 18.0013 20.0305 17.46C19.7319 16.9093 19.5825 16.2653 19.5825 15.528C19.5825 14.7907 19.7365 14.1513 20.0445 13.61C20.3525 13.0593 20.7679 12.6347 21.2905 12.336C21.8225 12.0373 22.4152 11.888 23.0685 11.888C23.7219 11.888 24.3099 12.0373 24.8325 12.336C25.3552 12.6347 25.7659 13.0593 26.0645 13.61C26.3725 14.1513 26.5265 14.7907 26.5265 15.528C26.5265 16.2653 26.3725 16.9093 26.0645 17.46C25.7565 18.0013 25.3365 18.4213 24.8045 18.72C24.2819 19.0187 23.6939 19.168 23.0405 19.168ZM23.0405 18.16C23.4419 18.16 23.8152 18.062 24.1605 17.866C24.5059 17.67 24.7859 17.376 25.0005 16.984C25.2152 16.592 25.3225 16.1067 25.3225 15.528C25.3225 14.9493 25.2152 14.464 25.0005 14.072C24.7952 13.68 24.5199 13.386 24.1745 13.19C23.8292 12.994 23.4605 12.896 23.0685 12.896C22.6672 12.896 22.2939 12.994 21.9485 13.19C21.6032 13.386 21.3232 13.68 21.1085 14.072C20.8939 14.464 20.7865 14.9493 20.7865 15.528C20.7865 16.1067 20.8939 16.592 21.1085 16.984C21.3232 17.376 21.5985 17.67 21.9345 17.866C22.2799 18.062 22.6485 18.16 23.0405 18.16ZM29.3019 19L27.2719 12.056H28.4479L29.9179 17.502L31.5419 12.056H32.8719L34.5099 17.502L35.9659 12.056H37.1559L35.1259 19H33.9219L32.2139 13.274L30.5059 19H29.3019ZM41.3188 19.168C40.6562 19.168 40.0682 19.0187 39.5548 18.72C39.0415 18.412 38.6355 17.9873 38.3368 17.446C38.0475 16.9047 37.9028 16.2653 37.9028 15.528C37.9028 14.8 38.0475 14.1653 38.3368 13.624C38.6262 13.0733 39.0275 12.6487 39.5408 12.35C40.0635 12.042 40.6655 11.888 41.3468 11.888C42.0188 11.888 42.5975 12.042 43.0828 12.35C43.5775 12.6487 43.9555 13.0453 44.2168 13.54C44.4782 14.0347 44.6088 14.5667 44.6088 15.136C44.6088 15.2387 44.6042 15.3413 44.5948 15.444C44.5948 15.5467 44.5948 15.6633 44.5948 15.794H39.0648C39.0928 16.326 39.2142 16.7693 39.4288 17.124C39.6528 17.4693 39.9282 17.7307 40.2548 17.908C40.5908 18.0853 40.9455 18.174 41.3188 18.174C41.8042 18.174 42.2102 18.062 42.5368 17.838C42.8635 17.614 43.1015 17.3107 43.2508 16.928H44.4128C44.2262 17.572 43.8668 18.1087 43.3348 18.538C42.8122 18.958 42.1402 19.168 41.3188 19.168ZM41.3188 12.882C40.7588 12.882 40.2595 13.0547 39.8208 13.4C39.3915 13.736 39.1442 14.2307 39.0788 14.884H43.4468C43.4188 14.2587 43.2042 13.7687 42.8028 13.414C42.4015 13.0593 41.9068 12.882 41.3188 12.882ZM46.1675 19V12.056H47.2315L47.3295 13.386C47.5442 12.9287 47.8709 12.5647 48.3095 12.294C48.7482 12.0233 49.2895 11.888 49.9335 11.888V13.12H49.6115C49.2009 13.12 48.8229 13.1947 48.4775 13.344C48.1322 13.484 47.8569 13.7267 47.6515 14.072C47.4462 14.4173 47.3435 14.8933 47.3435 15.5V19H46.1675ZM54.1157 19.168C53.453 19.168 52.865 19.0187 52.3517 18.72C51.8384 18.412 51.4324 17.9873 51.1337 17.446C50.8444 16.9047 50.6997 16.2653 50.6997 15.528C50.6997 14.8 50.8444 14.1653 51.1337 13.624C51.423 13.0733 51.8244 12.6487 52.3377 12.35C52.8604 12.042 53.4624 11.888 54.1437 11.888C54.8157 11.888 55.3944 12.042 55.8797 12.35C56.3744 12.6487 56.7524 13.0453 57.0137 13.54C57.275 14.0347 57.4057 14.5667 57.4057 15.136C57.4057 15.2387 57.401 15.3413 57.3917 15.444C57.3917 15.5467 57.3917 15.6633 57.3917 15.794H51.8617C51.8897 16.326 52.011 16.7693 52.2257 17.124C52.4497 17.4693 52.725 17.7307 53.0517 17.908C53.3877 18.0853 53.7424 18.174 54.1157 18.174C54.601 18.174 55.007 18.062 55.3337 17.838C55.6604 17.614 55.8984 17.3107 56.0477 16.928H57.2097C57.023 17.572 56.6637 18.1087 56.1317 18.538C55.609 18.958 54.937 19.168 54.1157 19.168ZM54.1157 12.882C53.5557 12.882 53.0564 13.0547 52.6177 13.4C52.1884 13.736 51.941 14.2307 51.8757 14.884H56.2437C56.2157 14.2587 56.001 13.7687 55.5997 13.414C55.1984 13.0593 54.7037 12.882 54.1157 12.882ZM62.1144 19.168C61.4237 19.168 60.8171 19.0093 60.2944 18.692C59.7811 18.3747 59.3797 17.9407 59.0904 17.39C58.8104 16.8393 58.6704 16.214 58.6704 15.514C58.6704 14.814 58.8151 14.1933 59.1044 13.652C59.3937 13.1013 59.7951 12.672 60.3084 12.364C60.8217 12.0467 61.4284 11.888 62.1284 11.888C62.6977 11.888 63.2017 12.0047 63.6404 12.238C64.0791 12.4713 64.4197 12.798 64.6624 13.218V8.92H65.8384V19H64.7744L64.6624 17.852C64.4384 18.188 64.1164 18.4913 63.6964 18.762C63.2764 19.0327 62.7491 19.168 62.1144 19.168ZM62.2404 18.146C62.7071 18.146 63.1177 18.0387 63.4724 17.824C63.8364 17.6 64.1164 17.292 64.3124 16.9C64.5177 16.508 64.6204 16.0507 64.6204 15.528C64.6204 15.0053 64.5177 14.548 64.3124 14.156C64.1164 13.764 63.8364 13.4607 63.4724 13.246C63.1177 13.022 62.7071 12.91 62.2404 12.91C61.7831 12.91 61.3724 13.022 61.0084 13.246C60.6537 13.4607 60.3737 13.764 60.1684 14.156C59.9724 14.548 59.8744 15.0053 59.8744 15.528C59.8744 16.0507 59.9724 16.508 60.1684 16.9C60.3737 17.292 60.6537 17.6 61.0084 17.824C61.3724 18.0387 61.7831 18.146 62.2404 18.146ZM75.1705 19.168C74.6012 19.168 74.0925 19.0513 73.6445 18.818C73.2058 18.5847 72.8698 18.258 72.6365 17.838L72.5245 19H71.4605V8.92H72.6365V13.204C72.8605 12.868 73.1778 12.5647 73.5885 12.294C74.0085 12.0233 74.5405 11.888 75.1845 11.888C75.8752 11.888 76.4772 12.0467 76.9905 12.364C77.5038 12.6813 77.9005 13.1153 78.1805 13.666C78.4698 14.2167 78.6145 14.842 78.6145 15.542C78.6145 16.242 78.4698 16.8673 78.1805 17.418C77.9005 17.9593 77.4992 18.3887 76.9765 18.706C76.4632 19.014 75.8612 19.168 75.1705 19.168ZM75.0445 18.146C75.5112 18.146 75.9218 18.0387 76.2765 17.824C76.6312 17.6 76.9112 17.292 77.1165 16.9C77.3218 16.508 77.4245 16.0507 77.4245 15.528C77.4245 15.0053 77.3218 14.548 77.1165 14.156C76.9112 13.764 76.6312 13.4607 76.2765 13.246C75.9218 13.022 75.5112 12.91 75.0445 12.91C74.5778 12.91 74.1672 13.022 73.8125 13.246C73.4578 13.4607 73.1778 13.764 72.9725 14.156C72.7672 14.548 72.6645 15.0053 72.6645 15.528C72.6645 16.0507 72.7672 16.508 72.9725 16.9C73.1778 17.292 73.4578 17.6 73.8125 17.824C74.1672 18.0387 74.5778 18.146 75.0445 18.146ZM80.447 22.08L82.169 18.328H81.763L79.005 12.056H80.279L82.575 17.46L85.011 12.056H86.229L81.679 22.08H80.447Z" fill="white"/>
<path d="M102.106 18.5852C102.101 18.5549 102.114 18.5245 102.139 18.5064C102.163 18.4883 102.196 18.4857 102.224 18.4997C102.69 18.7367 103.179 18.9244 103.684 19.0598C103.712 19.0672 103.741 19.0596 103.762 19.0398C103.981 18.8291 104.187 18.6044 104.377 18.3673C104.396 18.3445 104.4 18.3137 104.39 18.2865C104.201 17.7956 103.961 17.326 103.673 16.8854C103.656 16.8597 103.656 16.8268 103.671 16.8002C103.686 16.7737 103.715 16.7579 103.746 16.7595C103.878 16.7664 104.009 16.7699 104.141 16.7699C104.543 16.7698 104.945 16.7372 105.343 16.6723C105.371 16.6677 105.394 16.6489 105.405 16.6225C105.516 16.351 105.61 16.0729 105.686 15.7896C105.693 15.7615 105.685 15.7314 105.665 15.7107C105.285 15.3284 104.866 14.9881 104.414 14.6956C104.388 14.6789 104.374 14.6492 104.377 14.6187C104.38 14.5882 104.4 14.5621 104.429 14.5511C104.94 14.3549 105.428 14.1034 105.884 13.8011C105.908 13.7853 105.921 13.7584 105.921 13.73C105.911 13.4487 105.885 13.1683 105.842 12.8901C105.838 12.8614 105.819 12.8371 105.791 12.8264C105.279 12.6242 104.745 12.4791 104.2 12.3938C104.17 12.389 104.145 12.3677 104.135 12.3385C104.126 12.3093 104.133 12.2773 104.155 12.2556C104.552 11.8592 104.903 11.4196 105.202 10.945C105.217 10.9209 105.218 10.8907 105.206 10.8652C105.079 10.6068 104.936 10.3566 104.778 10.1159L104.774 10.1226C104.198 10.1418 103.626 10.2273 103.069 10.3775L103.046 10.3837C103.017 10.3919 102.985 10.3827 102.965 10.3599C102.944 10.3372 102.938 10.3049 102.949 10.2763C102.952 10.2689 102.955 10.2615 102.958 10.2541C103.16 9.72216 103.301 9.1689 103.378 8.60503C103.393 8.59893 103.408 8.59319 103.423 8.58718C103.18 8.38217 102.923 8.19379 102.655 8.02334L102.653 8.02443C102.655 8.05597 102.637 8.08528 102.609 8.09923C102.113 8.34556 101.646 8.646 101.216 8.99506L101.198 9.01006C101.174 9.02951 101.142 9.03394 101.114 9.02154C101.086 9.00914 101.067 8.982 101.065 8.9514C101.065 8.94349 101.065 8.93563 101.064 8.92771C101.034 8.37669 100.942 7.83071 100.792 7.29966C100.784 7.27151 100.792 7.24124 100.813 7.22062C100.819 7.21467 100.825 7.20872 100.831 7.20267C100.517 7.11281 100.196 7.04508 99.8726 7L99.8695 7.00564C99.8913 7.03515 99.8901 7.07577 99.8665 7.10392C99.5149 7.52963 99.2114 7.99281 98.9613 8.48507L98.9506 8.50618C98.9369 8.53355 98.9089 8.55085 98.8783 8.55092C98.8476 8.55098 98.8196 8.5338 98.8058 8.50649L98.795 8.48538C98.5424 7.99287 98.2362 7.52979 97.8818 7.10459C97.8632 7.08244 97.8579 7.05203 97.8679 7.02488C97.8705 7.0181 97.8731 7.01138 97.8754 7.0046C97.5552 7.05087 97.2385 7.11929 96.9278 7.2094L96.9273 7.21364C96.9567 7.23263 96.9702 7.26858 96.9607 7.30225C96.8118 7.83533 96.7223 8.38324 96.6939 8.93599L96.6927 8.95968C96.6913 8.99029 96.6727 9.01748 96.6448 9.02999C96.6168 9.04249 96.5842 9.03816 96.5604 9.01881L96.542 9.00391C96.1122 8.65756 95.6456 8.35966 95.1505 8.11563C95.1245 8.10293 95.1073 8.07726 95.1055 8.04838C95.1052 8.04419 95.1049 8.04 95.1047 8.03581C94.8358 8.20795 94.5789 8.39815 94.3358 8.60508C94.3501 8.61072 94.3643 8.61615 94.3785 8.62195C94.4579 9.18547 94.6012 9.73814 94.8055 10.2693L94.8141 10.2914C94.8253 10.32 94.8194 10.3524 94.7989 10.3752C94.7785 10.398 94.7469 10.4073 94.7173 10.3992L94.6944 10.3931C94.1459 10.2473 93.5826 10.1642 93.0154 10.1454C93.0105 10.1363 93.0059 10.1271 93.0009 10.1179C92.8316 10.3764 92.6794 10.6458 92.5455 10.9244C92.5511 10.9244 92.5567 10.9238 92.5624 10.9237C92.8641 11.4063 93.2197 11.8531 93.6224 12.2554L93.6392 12.2721C93.661 12.2937 93.6688 12.3256 93.6593 12.3548C93.6499 12.384 93.6248 12.4053 93.5945 12.41L93.5711 12.4137C93.0278 12.5009 92.4957 12.6476 91.9845 12.8511C91.9575 12.8619 91.9382 12.8862 91.9339 12.915C91.892 13.1945 91.867 13.4761 91.8588 13.7585C91.858 13.787 91.872 13.8138 91.8958 13.8295C92.3523 14.1291 92.8401 14.3781 93.3506 14.5719C93.3793 14.5828 93.3994 14.6089 93.4027 14.6394C93.406 14.6699 93.3918 14.6996 93.3661 14.7163C92.9161 15.0099 92.4989 15.351 92.1217 15.7336C92.1013 15.7544 92.0934 15.7845 92.101 15.8126C92.178 16.0966 92.2728 16.3754 92.385 16.6474C92.3959 16.6737 92.4198 16.6925 92.448 16.697C92.8351 16.7585 93.2264 16.7895 93.6184 16.7895C93.7591 16.7895 93.9003 16.7856 94.0421 16.7777C94.0727 16.7759 94.1017 16.7916 94.1171 16.8181C94.1325 16.8446 94.1317 16.8776 94.115 16.9033C93.8298 17.3441 93.5917 17.8137 93.4046 18.3043C93.3942 18.3315 93.3991 18.3623 93.4174 18.385C93.6092 18.6223 93.8161 18.8469 94.0369 19.0574C94.0577 19.0772 94.0873 19.0847 94.115 19.0772C94.6185 18.9399 95.1063 18.7505 95.5706 18.5121C95.5978 18.498 95.6307 18.5005 95.6555 18.5185C95.6804 18.5365 95.693 18.5669 95.6883 18.5972C95.6082 19.1082 95.5811 19.6261 95.6075 20.1427C95.609 20.1717 95.6257 20.1978 95.6515 20.2112C95.9277 20.3547 96.2132 20.4797 96.506 20.5852C96.5332 20.5949 96.5634 20.5897 96.5858 20.5714C96.9846 20.2444 97.3486 19.877 97.6721 19.4753C97.6913 19.4514 97.7223 19.4403 97.7523 19.4466C97.7823 19.453 97.8063 19.4756 97.8142 19.5052C97.9478 20.0011 98.1318 20.482 98.3636 20.9403C98.3766 20.966 98.4023 20.983 98.4311 20.9849C98.5829 20.9947 98.7358 20.9998 98.89 21C99.0521 21 99.2128 20.9945 99.372 20.9836C99.4009 20.9816 99.4266 20.9645 99.4396 20.9386C99.6697 20.4793 99.852 19.9976 99.9837 19.5011C99.9915 19.4714 100.015 19.4487 100.045 19.4423C100.075 19.4358 100.106 19.4468 100.126 19.4706C100.451 19.8714 100.817 20.2377 101.217 20.5634C101.24 20.5816 101.27 20.5867 101.297 20.5769C101.589 20.4705 101.874 20.3448 102.149 20.2005C102.175 20.187 102.191 20.1609 102.193 20.1318C102.217 19.6147 102.188 19.0964 102.106 18.5852ZM104.645 15.8308C104.702 15.8777 104.672 15.9699 104.599 15.975C104.446 15.9853 104.293 15.9906 104.139 15.9908C104.022 15.9908 103.904 15.9878 103.786 15.9817C103.492 15.9663 103.199 15.9317 102.909 15.8782C102.892 15.8751 102.876 15.8665 102.865 15.8538C102.64 15.6134 102.399 15.3883 102.144 15.1801C102.118 15.1591 102.108 15.1242 102.118 15.0925C102.129 15.0608 102.157 15.0386 102.191 15.0369C102.519 15.0173 102.846 14.9759 103.169 14.9127C103.186 14.9094 103.204 14.9116 103.219 14.919C103.731 15.1621 104.21 15.4684 104.645 15.8308L104.645 15.8308ZM104.079 13.163C104.347 13.2049 104.612 13.2629 104.873 13.3367C104.944 13.3568 104.954 13.4531 104.889 13.4875C104.389 13.7523 103.857 13.9533 103.307 14.086C103.29 14.09 103.272 14.0885 103.256 14.0817C102.953 13.9534 102.641 13.8456 102.323 13.7589C102.291 13.7502 102.268 13.7227 102.264 13.6895C102.261 13.6563 102.278 13.6244 102.308 13.6092C102.6 13.4579 102.882 13.2872 103.152 13.0983C103.166 13.0883 103.183 13.0832 103.2 13.0835C103.495 13.0908 103.788 13.1174 104.079 13.163ZM104.135 11.1014C103.786 11.5453 103.383 11.9435 102.935 12.2868C102.921 12.2972 102.904 12.303 102.887 12.3034C102.554 12.3098 102.222 12.3388 101.892 12.3901C101.86 12.3953 101.827 12.3798 101.81 12.3509C101.793 12.3221 101.796 12.2859 101.817 12.2599C102.019 12.0064 102.204 11.74 102.371 11.4622C102.38 11.4474 102.393 11.4358 102.409 11.4291C102.937 11.2064 103.492 11.0522 104.059 10.9702C104.132 10.9597 104.18 11.0437 104.135 11.1014ZM101.02 10.2643C101.022 10.2471 101.029 10.2311 101.041 10.2185C101.428 9.80705 101.865 9.44559 102.341 9.14259C102.404 9.10312 102.482 9.16013 102.464 9.23146C102.326 9.77902 102.12 10.3071 101.85 10.8034C101.842 10.8185 101.829 10.8306 101.813 10.8379C101.518 10.977 101.233 11.1354 100.959 11.3122C100.931 11.3303 100.895 11.3294 100.868 11.3099C100.841 11.2904 100.829 11.2562 100.837 11.224C100.919 10.9085 100.98 10.5879 101.02 10.2643ZM96.0535 9.61032C96.2898 9.80059 96.5129 10.0065 96.7216 10.2267C96.7334 10.2393 96.7409 10.2552 96.743 10.2723C96.7839 10.5958 96.8461 10.9162 96.9293 11.2314C96.9379 11.2636 96.9258 11.2978 96.8988 11.3174C96.8719 11.3371 96.8356 11.3381 96.8076 11.3201C96.5347 11.1454 96.2506 10.989 95.9571 10.8517C95.9415 10.8444 95.9286 10.8324 95.9203 10.8173C95.6482 10.3224 95.4395 9.79515 95.2992 9.24807C95.2809 9.17673 95.3596 9.11942 95.4218 9.15873C95.6409 9.29704 95.8518 9.44782 96.0535 9.61032ZM93.6582 11.1215C93.6125 11.0637 93.661 10.9794 93.7339 10.99C94.291 11.0712 94.8358 11.2216 95.3557 11.4376C95.3716 11.4442 95.385 11.4558 95.3938 11.4705C95.5627 11.7494 95.7498 12.0168 95.954 12.271C95.9749 12.2969 95.9778 12.3331 95.9611 12.362C95.9445 12.3908 95.9118 12.4065 95.8789 12.4014C95.5586 12.3529 95.2354 12.3254 94.9115 12.3192C94.8943 12.319 94.8777 12.3132 94.8639 12.3028C94.414 11.9612 94.0089 11.5643 93.6582 11.1215ZM92.9116 13.3603C93.4627 13.2026 94.0317 13.1159 94.6048 13.1025C94.622 13.1021 94.6389 13.1072 94.653 13.1171C94.9191 13.3019 95.197 13.4691 95.485 13.6174C95.5147 13.6326 95.532 13.6644 95.5286 13.6976C95.5252 13.7308 95.5017 13.7584 95.4695 13.7671C95.1483 13.8553 94.8334 13.965 94.527 14.0956C94.5111 14.1024 94.4935 14.104 94.4766 14.1001C93.9271 13.9709 93.396 13.773 92.896 13.5111C92.8313 13.4771 92.8409 13.3806 92.9116 13.3603ZM93.9988 16.0002C93.73 16.0152 93.4605 16.0142 93.1918 15.9971C93.1185 15.9924 93.0884 15.9003 93.1445 15.8531C93.5784 15.4889 94.0565 15.181 94.5676 14.9366C94.5832 14.9292 94.6009 14.9269 94.6179 14.9302C94.939 14.9915 95.2639 15.0313 95.5904 15.0496C95.6236 15.0513 95.6524 15.0734 95.6628 15.105C95.6732 15.1367 95.663 15.1715 95.6372 15.1926C95.3831 15.4017 95.1433 15.6276 94.9193 15.8687C94.9076 15.8814 94.8921 15.8901 94.8751 15.8933C94.5856 15.948 94.2929 15.9837 93.9988 16.0002ZM95.2149 17.8193C94.9737 17.9432 94.7254 18.0524 94.4711 18.1465C94.4022 18.172 94.3372 18.0999 94.3694 18.0341C94.6178 17.5252 94.9291 17.0496 95.2961 16.6183C95.3074 16.6052 95.3226 16.5959 95.3394 16.592C95.66 16.517 95.9752 16.4207 96.2829 16.3036C96.314 16.2917 96.3492 16.3001 96.3716 16.3248C96.394 16.3496 96.3988 16.3855 96.3838 16.4153C96.2367 16.7097 96.1094 17.0137 96.0028 17.3252C95.9972 17.3416 95.9865 17.3558 95.9723 17.3657C95.73 17.5332 95.4769 17.6848 95.2149 17.8193ZM97.0655 18.987C96.8966 19.1968 96.7154 19.3963 96.5228 19.5845C96.4703 19.6358 96.3816 19.5966 96.3842 19.5232C96.4042 18.9573 96.4956 18.3961 96.6562 17.8531C96.6612 17.8366 96.6713 17.8221 96.685 17.8117C96.9456 17.6139 97.1927 17.399 97.4248 17.1684C97.4483 17.1448 97.484 17.1382 97.5144 17.1516C97.5449 17.1651 97.564 17.196 97.5624 17.2293C97.5476 17.5581 97.5549 17.8876 97.5841 18.2155C97.5857 18.2328 97.5817 18.2501 97.5728 18.2649C97.4195 18.5164 97.2501 18.7576 97.0655 18.987ZM97.5055 9.9314C97.4942 9.91837 97.4873 9.90206 97.4859 9.88485C97.4392 9.32196 97.4631 8.75544 97.5571 8.1985C97.5694 8.12608 97.6645 8.10539 97.7054 8.16674C97.8505 8.38358 97.9829 8.60861 98.102 8.84071C98.2405 9.11057 98.3607 9.38945 98.4618 9.67545C98.4675 9.69172 98.4678 9.70938 98.4628 9.72588C98.3687 10.038 98.2954 10.3559 98.2433 10.6777C98.2381 10.7106 98.2131 10.737 98.1805 10.744C98.1479 10.751 98.1143 10.7372 98.096 10.7093C97.9166 10.4372 97.7193 10.1774 97.5055 9.9314ZM99.2309 19.3017C99.1614 19.5637 99.0763 19.8214 98.9759 20.0733C98.9487 20.1415 98.8517 20.1417 98.8243 20.0735C98.6126 19.5483 98.4678 18.9986 98.3931 18.4373C98.3908 18.4201 98.3941 18.4027 98.4025 18.3875C98.5614 18.0992 98.7009 17.8006 98.8199 17.4937C98.8319 17.4626 98.8617 17.442 98.8951 17.4419C98.9284 17.4419 98.9584 17.4623 98.9705 17.4934C99.0907 17.7999 99.2312 18.0979 99.3913 18.3856C99.3997 18.4008 99.4031 18.4182 99.4009 18.4354C99.3632 18.7275 99.3064 19.0169 99.2309 19.3017ZM99.5213 10.6757C99.4683 10.356 99.3943 10.0402 99.2998 9.73028C99.2948 9.71383 99.2951 9.69621 99.3007 9.67995C99.4855 9.1481 99.7364 8.64156 100.047 8.17222C100.088 8.11087 100.183 8.13084 100.196 8.20326C100.291 8.75816 100.317 9.32287 100.272 9.88412C100.27 9.90131 100.263 9.91761 100.252 9.93068C100.041 10.1762 99.8459 10.4354 99.6685 10.7066C99.6504 10.7345 99.6169 10.7483 99.5843 10.7415C99.5518 10.7347 99.5267 10.7085 99.5213 10.6757ZM100.209 18.2044C100.237 17.8783 100.243 17.5508 100.227 17.224C100.225 17.1907 100.244 17.1598 100.274 17.1462C100.305 17.1326 100.34 17.1391 100.364 17.1626C100.599 17.3937 100.848 17.6089 101.111 17.8067C101.125 17.817 101.135 17.8315 101.14 17.8481C101.302 18.3889 101.395 18.9477 101.418 19.5117C101.421 19.5851 101.332 19.6247 101.279 19.5737C100.872 19.18 100.517 18.7363 100.221 18.2534C100.212 18.2387 100.208 18.2215 100.209 18.2044H100.209ZM101.503 16.2937C101.811 16.4095 102.127 16.5046 102.448 16.5782C102.464 16.5821 102.48 16.5913 102.491 16.6044C102.86 17.0343 103.173 17.5087 103.423 18.0166C103.456 18.0825 103.391 18.1546 103.322 18.1294C102.79 17.935 102.285 17.6746 101.818 17.3542C101.803 17.3444 101.793 17.3302 101.787 17.3138C101.679 17.0029 101.551 16.6995 101.403 16.4057C101.388 16.376 101.392 16.3401 101.415 16.3154C101.437 16.2906 101.472 16.282 101.503 16.2937H101.503Z" fill="white"/>
<path d="M112.509 19.0201V12.9398C112.509 12.5661 112.582 12.2397 112.727 11.9605C112.872 11.6813 113.069 11.4637 113.317 11.3076C113.566 11.1515 113.846 11.0735 114.158 11.0735C114.62 11.0735 114.992 11.2208 115.276 11.5154C115.559 11.8099 115.701 12.2056 115.701 12.7024V19.0201H118.425V12.8343C118.425 12.3067 118.568 11.8814 118.853 11.5582C119.139 11.2351 119.537 11.0735 120.047 11.0735C120.495 11.0735 120.869 11.2142 121.168 11.4956C121.467 11.7769 121.616 12.199 121.616 12.7617V19.0201H124.419V12.2078C124.419 11.1087 124.124 10.2591 123.532 9.65896C122.941 9.05885 122.173 8.75879 121.227 8.75879C120.484 8.75879 119.841 8.93355 119.298 9.28306C118.755 9.63258 118.381 10.0975 118.174 10.6778H118.069C117.906 10.0887 117.581 9.62159 117.093 9.27647C116.605 8.93135 116.013 8.75879 115.319 8.75879C114.633 8.75879 114.044 8.93025 113.551 9.27317C113.059 9.61609 112.707 10.0843 112.496 10.6778H112.377V8.89068H109.7V19.0201H112.509ZM131.212 19.2179C132.236 19.2179 133.121 18.9992 133.866 18.5617C134.611 18.1243 135.186 17.5132 135.59 16.7284C135.995 15.9437 136.197 15.0325 136.197 13.9949C136.197 12.9486 135.995 12.033 135.59 11.2483C135.186 10.4635 134.611 9.8524 133.866 9.41496C133.121 8.97751 132.236 8.75879 131.212 8.75879C130.187 8.75879 129.302 8.97751 128.557 9.41496C127.812 9.8524 127.237 10.4635 126.833 11.2483C126.428 12.033 126.226 12.9486 126.226 13.9949C126.226 15.0325 126.428 15.9437 126.833 16.7284C127.237 17.5132 127.812 18.1243 128.557 18.5617C129.302 18.9992 130.187 19.2179 131.212 19.2179ZM131.225 17.0417C130.754 17.0417 130.36 16.9087 130.041 16.6427C129.722 16.3767 129.483 16.0129 129.322 15.5513C129.162 15.0896 129.082 14.5643 129.082 13.9752C129.082 13.386 129.162 12.8607 129.322 12.399C129.483 11.9374 129.722 11.5725 130.041 11.3043C130.36 11.0361 130.754 10.902 131.225 10.902C131.691 10.902 132.08 11.0361 132.392 11.3043C132.704 11.5725 132.941 11.9374 133.101 12.399C133.261 12.8607 133.342 13.386 133.342 13.9752C133.342 14.5643 133.261 15.0896 133.101 15.5513C132.941 16.0129 132.704 16.3767 132.392 16.6427C132.08 16.9087 131.691 17.0417 131.225 17.0417ZM140.84 19.0201V13.164C140.844 12.7288 140.927 12.3562 141.087 12.0462C141.248 11.7363 141.472 11.5 141.76 11.3373C142.048 11.1746 142.381 11.0933 142.759 11.0933C143.322 11.0933 143.763 11.2681 144.084 11.6176C144.405 11.9671 144.564 12.4518 144.559 13.0717V19.0201H147.369V12.5705C147.369 11.7835 147.223 11.1054 146.933 10.536C146.643 9.96671 146.236 9.52816 145.713 9.22041C145.19 8.91266 144.577 8.75879 143.873 8.75879C143.122 8.75879 142.482 8.93135 141.954 9.27647C141.427 9.62159 141.051 10.0887 140.827 10.6778H140.708V8.89068H138.031V19.0201H140.84ZM154.156 19.2179C155.18 19.2179 156.065 18.9992 156.81 18.5617C157.555 18.1243 158.13 17.5132 158.535 16.7284C158.939 15.9437 159.141 15.0325 159.141 13.9949C159.141 12.9486 158.939 12.033 158.535 11.2483C158.13 10.4635 157.555 9.8524 156.81 9.41496C156.065 8.97751 155.18 8.75879 154.156 8.75879C153.131 8.75879 152.247 8.97751 151.501 9.41496C150.756 9.8524 150.181 10.4635 149.777 11.2483C149.372 12.033 149.17 12.9486 149.17 13.9949C149.17 15.0325 149.372 15.9437 149.777 16.7284C150.181 17.5132 150.756 18.1243 151.501 18.5617C152.247 18.9992 153.131 19.2179 154.156 19.2179ZM154.169 17.0417C153.698 17.0417 153.304 16.9087 152.985 16.6427C152.666 16.3767 152.427 16.0129 152.266 15.5513C152.106 15.0896 152.026 14.5643 152.026 13.9752C152.026 13.386 152.106 12.8607 152.266 12.399C152.427 11.9374 152.666 11.5725 152.985 11.3043C153.304 11.0361 153.698 10.902 154.169 10.902C154.635 10.902 155.024 11.0361 155.336 11.3043C155.648 11.5725 155.885 11.9374 156.045 12.399C156.206 12.8607 156.286 13.386 156.286 13.9752C156.286 14.5643 156.206 15.0896 156.045 15.5513C155.885 16.0129 155.648 16.3767 155.336 16.6427C155.024 16.9087 154.635 17.0417 154.169 17.0417Z" fill="white"/>
</svg>
